<?xml version="1.0" standalone="no"?>
<!DOCTYPE svg PUBLIC "-//W3C//DTD SVG 20010904//EN"
 "http://www.w3.org/TR/2001/REC-SVG-20010904/DTD/svg10.dtd">
<svg version="1.0" xmlns="http://www.w3.org/2000/svg"
 width="512.000000pt" height="512.000000pt" viewBox="0 0 512.000000 512.000000"
 preserveAspectRatio="xMidYMid meet">

<g transform="translate(0.000000,512.000000) scale(0.100000,-0.100000)"
fill="#000000" stroke="none">
<path d="M2614 4826 c-27 -13 -66 -42 -87 -66 -67 -79 -67 -76 -67 -641 l0
-508 -52 -5 c-29 -3 -127 -13 -218 -22 -289 -28 -566 -84 -789 -160 -648 -221
-1040 -651 -1211 -1329 -86 -342 -119 -655 -135 -1296 -8 -290 -2 -342 48
-416 48 -72 113 -107 204 -111 64 -4 80 -1 129 23 45 22 69 44 123 113 411
529 574 702 806 857 268 179 563 264 1043 298 l52 4 0 -517 c0 -568 0 -569 61
-643 48 -58 109 -89 188 -95 129 -9 54 -74 1234 1069 1166 1128 1122 1082
1121 1198 0 74 -19 125 -63 174 -62 69 -2082 2020 -2120 2048 -77 56 -180 65
-267 25z m1095 -1560 c386 -373 701 -682 699 -687 -2 -4 -320 -315 -708 -691
l-705 -683 -5 360 -5 360 -28 47 c-41 70 -102 112 -184 127 -68 13 -481 -5
-667 -29 -594 -76 -989 -261 -1389 -649 -66 -64 -107 -98 -107 -87 0 54 34
328 56 444 100 542 298 849 671 1040 307 156 690 236 1251 261 196 8 206 10
260 38 63 31 115 92 132 151 6 22 10 168 10 360 0 183 4 322 9 320 5 -1 324
-308 710 -682z"/>
</g>
</svg>
