<?xml version="1.0" standalone="no"?>
<!DOCTYPE svg PUBLIC "-//W3C//DTD SVG 20010904//EN"
 "http://www.w3.org/TR/2001/REC-SVG-20010904/DTD/svg10.dtd">
<svg version="1.0" xmlns="http://www.w3.org/2000/svg"
 width="512.000000pt" height="512.000000pt" viewBox="0 0 512.000000 512.000000"
 preserveAspectRatio="xMidYMid meet">

<g transform="translate(0.000000,512.000000) scale(0.100000,-0.100000)"
fill="#000000" stroke="none">
<path d="M327 4299 c-21 -5 -50 -15 -66 -24 -42 -21 -106 -98 -119 -143 -16
-53 -16 -421 0 -474 15 -49 78 -123 129 -149 22 -11 528 -236 1127 -501 1048
-465 1089 -482 1157 -485 l70 -4 1125 501 c1001 445 1129 505 1167 542 71 69
78 101 78 338 0 187 -2 209 -21 250 -26 58 -76 108 -134 134 l-45 21 -2215 2
c-1277 0 -2231 -3 -2253 -8z"/>
<path d="M130 2055 c0 -765 3 -1038 12 -1067 17 -57 88 -133 146 -155 45 -17
143 -18 2272 -18 2129 0 2227 1 2272 18 60 23 131 100 147 159 9 32 11 305 9
1065 l-3 1022 -1070 -476 c-588 -261 -1104 -487 -1145 -501 -65 -22 -93 -26
-205 -26 -100 -1 -144 3 -190 18 -33 10 -546 234 -1140 498 -594 264 -1086
482 -1092 485 -10 4 -13 -204 -13 -1022z"/>
</g>
</svg>
